<svg width="30" height="44" viewBox="0 0 30 44" fill="none" xmlns="http://www.w3.org/2000/svg">
<path d="M11.3271 5.15047C6.72374 11.8271 3.2712 17.9791 1.61397 22.4143C0.463123 25.4665 0.278987 26.468 0.463123 29.0909C0.739326 32.8584 2.12035 36.006 4.60618 38.6766C10.2223 44.6856 19.9815 44.6856 25.5977 38.6766C28.0835 36.006 29.4645 32.8584 29.7407 29.0909C29.9249 26.468 29.7407 25.4665 28.5899 22.4143C27.8533 20.459 26.1501 16.8822 24.8151 14.5454C22.3753 10.2533 15.5162 -6.48499e-05 15.1019 -6.48499e-05C14.9638 -6.48499e-05 13.3066 2.33675 11.3271 5.15047ZM13.7209 10.7302V14.7839H11.189C9.80802 14.7839 8.65717 14.6408 8.65717 14.45C8.65717 14.0685 13.3066 6.67656 13.5368 6.67656C13.6288 6.67656 13.7209 8.48878 13.7209 10.7302ZM19.199 10.3964C20.4879 12.4471 21.5467 14.2593 21.5467 14.45C21.5467 14.6408 20.3958 14.7839 19.0148 14.7839H16.4829V10.7302C16.4829 8.48878 16.575 6.67656 16.6671 6.67656C16.7592 6.67656 17.91 8.34571 19.199 10.3964ZM13.7209 20.2206V22.7481L11.5113 23.082C10.2684 23.225 8.05873 23.7019 6.58564 24.0835C5.11256 24.5127 3.8236 24.7034 3.73154 24.608C3.59343 24.465 4.19187 22.8435 4.97445 21.0313L6.49357 17.6453H10.0842H13.7209V20.2206ZM25.2294 21.0313C26.012 22.8435 26.6104 24.465 26.4723 24.608C26.3803 24.7034 25.0913 24.5127 23.6182 24.0835C22.1451 23.7019 19.9355 23.225 18.6926 23.082L16.4829 22.7481V20.2206V17.6453H20.1196H23.7103L25.2294 21.0313ZM16.3909 26.0387C18.1862 27.3264 17.2655 30.5216 15.1019 30.5216C12.9383 30.5216 12.0177 27.3264 13.813 26.0387C14.3654 25.6095 14.9638 25.2757 15.1019 25.2757C15.24 25.2757 15.8385 25.6095 16.3909 26.0387ZM10.1303 27.8987C9.90009 29.854 9.48578 29.9493 5.8491 28.7571L3.36326 27.994L5.89513 27.1356C9.85405 25.8003 10.3604 25.8957 10.1303 27.8987ZM24.3087 27.1356L26.8406 27.994L24.3548 28.7571C20.7181 29.9493 20.3038 29.854 20.0736 27.8987C19.8434 25.8957 20.3498 25.8003 24.3087 27.1356ZM7.04598 31.9523C9.02544 32.4769 11.3271 32.9061 12.2018 32.9061H13.7209V36.7213V40.5365L12.478 40.2504C9.85406 39.5827 7.04598 37.7228 5.38876 35.5768C4.51411 34.4322 2.94896 30.9985 3.2712 30.9985C3.36326 30.9985 5.06652 31.4277 7.04598 31.9523ZM26.3803 32.7154C24.9072 36.4352 21.6388 39.2966 17.7719 40.2504L16.4829 40.5365V36.7213V32.9061L18.2322 32.8584C19.1529 32.8584 21.2705 32.4769 22.9277 32C27.2549 30.7601 27.2089 30.7124 26.3803 32.7154Z" fill="#AFA693"/>
<path d="M14.2732 27.9941C14.3653 28.471 14.7336 28.8525 15.1019 28.8525C15.4701 28.8525 15.8384 28.471 15.9305 27.9941C16.0225 27.4218 15.7924 27.1834 15.1019 27.1834C14.4114 27.1834 14.1812 27.4218 14.2732 27.9941Z" fill="#AFA693"/>
</svg>
